<svg width="21" height="19" viewBox="0 0 21 19" fill="none" xmlns="http://www.w3.org/2000/svg">
<path d="M1 1L3.0505 1.70702C3.81246 1.96975 4.37441 2.64264 4.51499 3.46063L5.71851 10.4634C5.90444 11.5452 6.8137 12.3333 7.87594 12.3333H16.2248C17.2008 12.3333 18.0591 11.6657 18.33 10.6958L19.9126 5.02909C20.3174 3.57967 19.2659 2.13333 17.8074 2.13333H7.57376M8.66939 16.3C8.66939 17.2389 7.93359 18 7.02595 18C6.1183 18 5.38251 17.2389 5.38251 16.3C5.38251 15.3611 6.1183 14.6 7.02595 14.6C7.93359 14.6 8.66939 15.3611 8.66939 16.3ZM17.4344 16.3C17.4344 17.2389 16.6986 18 15.791 18C14.8833 18 14.1475 17.2389 14.1475 16.3C14.1475 15.3611 14.8833 14.6 15.791 14.6C16.6986 14.6 17.4344 15.3611 17.4344 16.3Z" stroke="white" stroke-linecap="round" stroke-linejoin="round"/>
</svg>
