<svg width="100" height="22" viewBox="0 0 100 22" fill="none" xmlns="http://www.w3.org/2000/svg">
<path d="M0 4.35325C0 2.78921 1.26791 1.5213 2.83195 1.5213H18.8797V1.5213C18.8797 3.08534 17.6117 4.35325 16.0477 4.35325H0V4.35325Z" fill="#F5F5F5"/>
<path d="M7.55176 1.5213H11.3277V20.401V20.401C9.2423 20.401 7.55176 18.7104 7.55176 16.625V1.5213Z" fill="#F5F5F5"/>
<path d="M36.1553 4.35325C36.1553 2.78921 37.4232 1.5213 38.9872 1.5213H55.0349V1.5213C55.0349 3.08534 53.767 4.35325 52.203 4.35325H36.1553V4.35325Z" fill="#F5F5F5"/>
<path d="M43.707 1.5213H47.483V20.401V20.401C45.3976 20.401 43.707 18.7104 43.707 16.625V1.5213Z" fill="#F5F5F5"/>
<path d="M24.5614 3.99946C25.4428 2.10945 27.6894 1.29175 29.5794 2.17308V2.17308L22.1989 18.0005C21.3176 19.8906 19.071 20.7082 17.181 19.8269V19.8269L24.5614 3.99946Z" fill="#F5F5F5"/>
<path d="M26.1484 2.1731V2.1731C28.0384 1.29177 30.285 2.10947 31.1664 3.99948L38.5468 19.8269V19.8269C36.6568 20.7083 34.4102 19.8906 33.5289 18.0006L26.1484 2.1731Z" fill="#F5F5F5"/>
<path d="M86.0136 3.99946C86.8949 2.10945 89.1415 1.29175 91.0315 2.17308V2.17308L83.6511 18.0005C82.7697 19.8906 80.5231 20.7082 78.6331 19.8269V19.8269L86.0136 3.99946Z" fill="#F5F5F5"/>
<path d="M87.6016 2.1731V2.1731C89.4916 1.29177 91.7382 2.10947 92.6195 3.99948L100 19.8269V19.8269C98.11 20.7083 95.8634 19.8906 94.982 18.0006L87.6016 2.1731Z" fill="#F5F5F5"/>
<path d="M71.2852 18.0005C70.4039 19.8905 68.1573 20.7082 66.2673 19.8269V19.8269L73.6478 3.99945C74.5291 2.10945 76.7757 1.29175 78.6657 2.17307V2.17307L71.2852 18.0005Z" fill="#F5F5F5"/>
<path d="M69.6982 19.8269V19.8269C67.8082 20.7083 65.5616 19.8906 64.6803 18.0006L57.2998 2.17309V2.17309C59.1898 1.29176 61.4364 2.10946 62.3178 3.99947L69.6982 19.8269Z" fill="#F5F5F5"/>
</svg>
