<svg width="16" height="16" viewBox="0 0 16 16" fill="none" xmlns="http://www.w3.org/2000/svg">
<path d="M6.44411 0.000118984C2.89297 0.000118984 0 2.8931 0 6.44426C0 9.99543 2.89312 12.8884 6.44411 12.8884C7.97996 12.8884 9.39073 12.3455 10.4997 11.444L14.8605 15.8048C15.1207 16.0651 15.5445 16.0651 15.8048 15.8048C16.0651 15.5445 16.0651 15.1277 15.8048 14.8673L11.444 10.5065C12.3473 9.39709 12.8884 7.98167 12.8884 6.44414C12.8884 2.89298 9.9953 0 6.44431 0L6.44411 0.000118984ZM6.44411 1.33339C9.27462 1.33339 11.5549 3.61378 11.5549 6.44418C11.5549 9.27458 9.2745 11.555 6.44411 11.555C3.61373 11.555 1.33335 9.27458 1.33335 6.44418C1.33335 3.61378 3.61373 1.33339 6.44411 1.33339V1.33339Z" fill="white"/>
</svg>
